<svg xmlns="http://www.w3.org/2000/svg" viewBox="0 0 800 600">
  <!-- Dark background -->
  <rect width="800" height="600" fill="#1a1a2e" />
  
  <!-- Title -->
  <text x="400" y="50" font-family="Arial, sans-serif" font-size="28" font-weight="bold" fill="white" text-anchor="middle">CHRIST: THE CENTRAL TERM IN REALITY'S EQUATION</text>
  <text x="400" y="80" font-family="Arial, sans-serif" font-size="16" font-style="italic" fill="#a277ff" text-anchor="middle">Unifying Quantum Mechanics, Thermodynamics, and Divine Information</text>
  
  <!-- Central Cross Symbol -->
  <g transform="translate(400, 170)">
    <path d="M0,-15 L0,15 M-15,0 L15,0" stroke="white" stroke-width="3" />
    <circle cx="0" cy="0" r="30" fill="none" stroke="white" stroke-width="1" />
  </g>
  
  <!-- Main Equation Display -->
  <rect x="150" y="220" width="500" height="70" rx="10" fill="#2a2a4a" />
  <text x="400" y="265" font-family="Arial, sans-serif" font-size="24" fill="white" text-anchor="middle">Ψ(r,t) = [G·Q·I] × R_J × e^(-S/k)</text>
  <text x="400" y="300" font-family="Arial, sans-serif" font-size="14" fill="#a277ff" font-style="italic" text-anchor="middle">The Master Equation with Christ (R_J) as the central transformative term</text>
  
  <!-- Trinity Structure Diagram -->
  <g transform="translate(200, 400)">
    <circle cx="0" cy="0" r="60" fill="#16213e" stroke="#4cc9f0" stroke-width="2" />
    <text x="0" y="0" font-family="Arial, sans-serif" font-size="14" fill="white" text-anchor="middle">FATHER</text>
    <text x="0" y="20" font-family="Arial, sans-serif" font-size="12" fill="#4cc9f0" text-anchor="middle">Source/Potential</text>
    
    <circle cx="100" cy="70" r="60" fill="#16213e" stroke="#4cc9f0" stroke-width="2" />
    <text x="100" y="70" font-family="Arial, sans-serif" font-size="14" fill="white" text-anchor="middle">SON</text>
    <text x="100" y="90" font-family="Arial, sans-serif" font-size="12" fill="#4cc9f0" text-anchor="middle">Manifestation</text>
    
    <circle cx="-100" cy="70" r="60" fill="#16213e" stroke="#4cc9f0" stroke-width="2" />
    <text x="-100" y="70" font-family="Arial, sans-serif" font-size="14" fill="white" text-anchor="middle">SPIRIT</text>
    <text x="-100" y="90" font-family="Arial, sans-serif" font-size="12" fill="#4cc9f0" text-anchor="middle">Coherence</text>
    
    <!-- Connection lines -->
    <path d="M50,35 L5,5" stroke="#4cc9f0" stroke-width="2" />
    <path d="M-50,35 L-5,5" stroke="#4cc9f0" stroke-width="2" />
    <path d="M-40,70 L40,70" stroke="#4cc9f0" stroke-width="2" />
    
    <text x="0" y="-80" font-family="Arial, sans-serif" font-size="16" fill="white" text-anchor="middle">TRINITY STRUCTURE</text>
  </g>
  
  <!-- Resurrection Physics -->
  <g transform="translate(600, 400)">
    <circle cx="0" cy="0" r="80" fill="#16213e" stroke="#a277ff" stroke-width="2" />
    
    <!-- Entropy arrow going down -->
    <path d="M-40,-20 L40,20" stroke="red" stroke-width="2" />
    <polygon points="40,20 30,15 35,10" fill="red" />
    <text x="-25" y="-20" font-family="Arial, sans-serif" font-size="12" fill="red" text-anchor="middle">Entropy</text>
    
    <!-- Grace arrow going up -->
    <path d="M-40,20 L40,-20" stroke="#a277ff" stroke-width="2" />
    <polygon points="40,-20 35,-10 30,-15" fill="#a277ff" />
    <text x="25" y="-20" font-family="Arial, sans-serif" font-size="12" fill="#a277ff" text-anchor="middle">Grace</text>
    
    <!-- Resurrection Factor -->
    <text x="0" y="0" font-family="Arial, sans-serif" font-size="16" fill="white" text-anchor="middle">R_J</text>
    <text x="0" y="20" font-family="Arial, sans-serif" font-size="12" fill="#a277ff" text-anchor="middle">Resurrection Factor</text>
    
    <text x="0" y="-60" font-family="Arial, sans-serif" font-size="16" fill="white" text-anchor="middle">ENTROPY REVERSAL</text>
  </g>
  
  <!-- Three Key Elements -->
  <rect x="100" y="520" width="180" height="60" rx="5" fill="#2a2a4a" />
  <text x="190" y="545" font-family="Arial, sans-serif" font-size="14" fill="white" text-anchor="middle">TRINITY</text>
  <text x="190" y="565" font-family="Arial, sans-serif" font-size="12" fill="#4cc9f0" text-anchor="middle">Mathematical Structure</text>
  
  <rect x="310" y="520" width="180" height="60" rx="5" fill="#2a2a4a" />
  <text x="400" y="545" font-family="Arial, sans-serif" font-size="14" fill="white" text-anchor="middle">CROSS</text>
  <text x="400" y="565" font-family="Arial, sans-serif" font-size="12" fill="#4cc9f0" text-anchor="middle">Entropy Absorption</text>
  
  <rect x="520" y="520" width="180" height="60" rx="5" fill="#2a2a4a" />
  <text x="610" y="545" font-family="Arial, sans-serif" font-size="14" fill="white" text-anchor="middle">RESURRECTION</text>
  <text x="610" y="565" font-family="Arial, sans-serif" font-size="12" fill="#4cc9f0" text-anchor="middle">New Physics Paradigm</text>
  
  <!-- Bottom Formula -->
  <text x="400" y="595" font-family="Arial, sans-serif" font-size="12" fill="#a277ff" text-anchor="middle">Without Christ, the equation remains fundamentally incomplete and unsolvable</text>
</svg>
