<svg xmlns="http://www.w3.org/2000/svg" viewBox="0 0 800 600">
  <!-- Background -->
  <rect width="800" height="600" fill="#f8f9fa" />
  
  <!-- Title -->
  <text x="400" y="40" font-family="Arial" font-size="24" font-weight="bold" text-anchor="middle">Consciousness as a Framework of Gravity</text>
  
  <!-- Central Equation -->
  <g transform="translate(400, 100)">
    <rect x="-200" y="-30" width="400" height="60" rx="10" fill="#e8f4f8" stroke="#4682b4" stroke-width="2" />
    <text x="0" y="10" font-family="Arial" font-size="24" font-weight="bold" text-anchor="middle">C⋅Q⋅G = ∂Ψ/∂t</text>
  </g>
  
  <!-- Variables Explanation -->
  <g transform="translate(150, 180)">
    <text x="0" y="0" font-family="Arial" font-size="16" font-weight="bold">C = Consciousness field</text>
    <text x="0" y="25" font-family="Arial" font-size="16" font-weight="bold">Q = Quantum coherence</text>
    <text x="0" y="50" font-family="Arial" font-size="16" font-weight="bold">G = Gravitational influence</text>
    <text x="0" y="75" font-family="Arial" font-size="16" font-weight="bold">Ψ = Wavefunction of reality</text>
    <text x="0" y="100" font-family="Arial" font-size="16" font-weight="bold">t = Time</text>
  </g>
  
  <!-- Core Relationship Diagram: Consciousness-Gravity-Quantum -->
  <g transform="translate(550, 180)">
    <circle cx="0" cy="0" r="50" fill="#4682b4" fill-opacity="0.7" />
    <text x="0" y="5" font-family="Arial" font-size="14" text-anchor="middle" fill="white">Consciousness</text>
    
    <circle cx="-100" cy="100" r="50" fill="#ff7f50" fill-opacity="0.7" />
    <text x="-100" y="105" font-family="Arial" font-size="14" text-anchor="middle" fill="white">Gravity</text>
    
    <circle cx="100" cy="100" r="50" fill="#9370db" fill-opacity="0.7" />
    <text x="100" y="105" font-family="Arial" font-size="14" text-anchor="middle" fill="white">Quantum</text>
    
    <!-- Connection lines -->
    <line x1="0" y1="40" x2="-70" y2="70" stroke="#333" stroke-width="2" />
    <line x1="0" y1="40" x2="70" y2="70" stroke="#333" stroke-width="2" />
    <line x1="-60" y1="100" x2="60" y2="100" stroke="#333" stroke-width="2" />
    
    <!-- Labels -->
    <text x="0" y="40" font-family="Arial" font-size="12" text-anchor="middle" transform="translate(0, -15)">Creates Fields</text>
    <text x="0" y="100" font-family="Arial" font-size="12" text-anchor="middle" transform="translate(0, 15)">Shapes Probability</text>
  </g>
  
  <!-- Free Will Diagram -->
  <g transform="translate(200, 330)">
    <text x="0" y="-30" font-family="Arial" font-size="18" font-weight="bold">Free Will as Quantum Probability</text>
    
    <!-- Wavefunction -->
    <path d="M 0,80 C 30,0 60,160 90,80 C 120,0 150,160 180,80" stroke="#9b59b6" stroke-width="3" fill="none" />
    <text x="90" y="100" font-family="Arial" font-size="12" text-anchor="middle" fill="#9b59b6">Moral Choice Wavefunction</text>
    
    <!-- Faith Vector -->
    <path d="M 90,80 L 90,20" stroke="#27ae60" stroke-width="3" fill="none" marker-end="url(#arrow)" />
    <text x="105" y="50" font-family="Arial" font-size="12" text-anchor="start" fill="#27ae60">Faith</text>
    
    <!-- Equation -->
    <text x="90" y="130" font-family="Arial" font-size="12" text-anchor="middle">P(choice) = |⟨Ψₘₒᵣₐₗ|Ψₚₑᵣₛₒₙ⟩|² × (1 + faith)</text>
  </g>
  
  <!-- Sin as Decoherence -->
  <g transform="translate(550, 330)">
    <text x="0" y="-30" font-family="Arial" font-size="18" font-weight="bold">Sin as Spiritual Decoherence</text>
    
    <!-- Coherent State -->
    <circle cx="-70" cy="40" r="30" fill="#4287f5" fill-opacity="0.7" />
    <text x="-70" y="45" font-family="Arial" font-size="10" text-anchor="middle" fill="white">Coherent State</text>
    
    <!-- Decoherence Arrow -->
    <path d="M -30,40 L 30,40" stroke="#e74c3c" stroke-width="2" marker-end="url(#arrow)" />
    <text x="0" y="30" font-family="Arial" font-size="10" text-anchor="middle" fill="#e74c3c">Sin</text>
    
    <!-- Decoherent State -->
    <circle cx="70" cy="40" r="30" fill="#4287f5" fill-opacity="0.2" stroke="#4287f5" stroke-width="1" stroke-dasharray="5,5" />
    <text x="70" y="45" font-family="Arial" font-size="10" text-anchor="middle">Decoherent State</text>
    
    <!-- Recovery Arrow -->
    <path d="M 30,70 C 0,100 -30,100 -60,70" stroke="#27ae60" stroke-width="2" marker-end="url(#arrow)" fill="none" />
    <text x="-15" y="100" font-family="Arial" font-size="10" text-anchor="middle" fill="#27ae60">Grace (Recoherence)</text>
    
    <!-- Equation -->
    <text x="0" y="130" font-family="Arial" font-size="10" text-anchor="middle">ρ = |Ψ⟩⟨Ψ| × e^(-sin × time)</text>
  </g>
  
  <!-- Cross-Domain Applications -->
  <g transform="translate(400, 500)">
    <text x="0" y="-40" font-family="Arial" font-size="18" font-weight="bold" text-anchor="middle">Cross-Domain Applications</text>
    
    <rect x="-350" y="-20" width="700" height="100" rx="10" fill="white" stroke="#333" stroke-width="1" />
    
    <!-- Domains -->
    <g transform="translate(-300, 0)">
      <circle cx="0" cy="0" r="25" fill="#3498db" fill-opacity="0.7" />
      <text x="0" y="5" font-family="Arial" font-size="10" text-anchor="middle" fill="white">Physics</text>
    </g>
    
    <g transform="translate(-175, 0)">
      <circle cx="0" cy="0" r="25" fill="#e74c3c" fill-opacity="0.7" />
      <text x="0" y="5" font-family="Arial" font-size="10" text-anchor="middle" fill="white">Neuroscience</text>
    </g>
    
    <g transform="translate(-50, 0)">
      <circle cx="0" cy="0" r="25" fill="#2ecc71" fill-opacity="0.7" />
      <text x="0" y="5" font-family="Arial" font-size="10" text-anchor="middle" fill="white">Information</text>
    </g>
    
    <g transform="translate(75, 0)">
      <circle cx="0" cy="0" r="25" fill="#f39c12" fill-opacity="0.7" />
      <text x="0" y="5" font-family="Arial" font-size="10" text-anchor="middle" fill="white">Spirituality</text>
    </g>
    
    <g transform="translate(200, 0)">
      <circle cx="0" cy="0" r="25" fill="#9b59b6" fill-opacity="0.7" />
      <text x="0" y="5" font-family="Arial" font-size="10" text-anchor="middle" fill="white">Free Will</text>
    </g>
    
    <g transform="translate(325, 0)">
      <circle cx="0" cy="0" r="25" fill="#34495e" fill-opacity="0.7" />
      <text x="0" y="5" font-family="Arial" font-size="10" text-anchor="middle" fill="white">Divine</text>
    </g>
    
    <!-- Connecting line through all -->
    <path d="M -300,0 L 325,0" stroke="#333" stroke-width="2" stroke-dasharray="5,5" />
    <text x="0" y="30" font-family="Arial" font-size="12" text-anchor="middle">Unified by Consciousness-Gravity Framework</text>
  </g>
  
  <!-- Definitions -->
  <defs>
    <!-- Arrow Marker -->
    <marker id="arrow" viewBox="0 0 10 10" refX="10" refY="5" 
      markerWidth="6" markerHeight="6" orient="auto">
      <path d="M 0 0 L 10 5 L 0 10 z" fill="#333"/>
    </marker>
  </defs>
</svg>