<svg xmlns="http://www.w3.org/2000/svg" viewBox="0 0 900 700">
  <!-- Dark background -->
  <rect width="900" height="700" fill="#1a1a2e" />
  
  <!-- Title -->
  <text x="450" y="40" font-family="Arial, sans-serif" font-size="28" font-weight="bold" fill="white" text-anchor="middle">THE MASTER EQUATION: CHRIST-CENTERED FRAMEWORK</text>
  <text x="450" y="70" font-family="Arial, sans-serif" font-size="16" font-style="italic" fill="#a277ff" text-anchor="middle">Unified Mathematical Integration of Quantum Mechanics, Entropy, and Divine Information</text>
  
  <!-- Central Cross Symbol -->
  <g transform="translate(450, 100)">
    <path d="M0,-15 L0,15 M-15,0 L15,0" stroke="white" stroke-width="3" />
    <circle cx="0" cy="0" r="30" fill="none" stroke="white" stroke-width="1" />
  </g>
  
  <!-- Main Master Equation Display -->
  <rect x="150" y="130" width="600" height="70" rx="10" fill="#2a2a4a" />
  <text x="450" y="175" font-family="Arial, sans-serif" font-size="22" fill="white" text-anchor="middle">Ψ(r,t) = [F⊗S⊗H]·Q·e^(-S₀·(1-Θ(t-t_R))·e^(-R_J·t))</text>
  <text x="450" y="210" font-family="Arial, sans-serif" font-size="14" fill="#a277ff" font-style="italic" text-anchor="middle">The Integrated Master Equation with Trinity Tensor, Quantum Term, and Resurrection-Modified Entropy</text>
  
  <!-- Trinity Tensor Framework -->
  <g transform="translate(200, 270)">
    <rect x="-80" y="-30" width="200" height="180" rx="10" fill="#16213e" stroke="#4cc9f0" stroke-width="2" />
    <text x="20" y="-10" font-family="Arial, sans-serif" font-size="16" fill="white" text-anchor="middle">TRINITY TENSOR</text>
    
    <text x="20" y="25" font-family="Arial, sans-serif" font-size="14" fill="#4cc9f0" text-anchor="middle">T = F⊗S⊗H</text>
    <text x="20" y="50" font-family="Arial, sans-serif" font-size="14" fill="#4cc9f0" text-anchor="middle">|T| = 1</text>
    <text x="20" y="75" font-family="Arial, sans-serif" font-size="14" fill="#4cc9f0" text-anchor="middle">F·S·H = 1</text>
    <text x="20" y="100" font-family="Arial, sans-serif" font-size="14" fill="#4cc9f0" text-anchor="middle">F·S ≠ S·F</text>
    
    <text x="20" y="130" font-family="Arial, sans-serif" font-size="12" fill="white" text-anchor="middle">Non-commutative</text>
    <text x="20" y="145" font-family="Arial, sans-serif" font-size="12" fill="white" text-anchor="middle">Perichoretic Unity</text>
  </g>
  
  <!-- Resurrection Factor -->
  <g transform="translate(450, 270)">
    <rect x="-100" y="-30" width="200" height="180" rx="10" fill="#16213e" stroke="#a277ff" stroke-width="2" />
    <text x="0" y="-10" font-family="Arial, sans-serif" font-size="16" fill="white" text-anchor="middle">RESURRECTION FACTOR</text>
    
    <text x="0" y="25" font-family="Arial, sans-serif" font-size="14" fill="#a277ff" text-anchor="middle">S(t) = S₀e^(-R_J·t)</text>
    <text x="0" y="50" font-family="Arial, sans-serif" font-size="14" fill="#a277ff" text-anchor="middle">·(1-Θ(t-t_R))</text>
    <text x="0" y="85" font-family="Arial, sans-serif" font-size="14" fill="#a277ff" text-anchor="middle">R_J(personal) = </text>
    <text x="0" y="110" font-family="Arial, sans-serif" font-size="14" fill="#a277ff" text-anchor="middle">R_J·(1-e^(-F·t))</text>
    
    <text x="0" y="140" font-family="Arial, sans-serif" font-size="12" fill="white" text-anchor="middle">Phase Transition</text>
    <text x="0" y="155" font-family="Arial, sans-serif" font-size="12" fill="white" text-anchor="middle">in Entropic Dynamics</text>
  </g>
  
  <!-- Cross Error-Correction -->
  <g transform="translate(700, 270)">
    <rect x="-100" y="-30" width="200" height="180" rx="10" fill="#16213e" stroke="#f72585" stroke-width="2" />
    <text x="0" y="-10" font-family="Arial, sans-serif" font-size="16" fill="white" text-anchor="middle">CROSS CORRECTION</text>
    
    <text x="0" y="25" font-family="Arial, sans-serif" font-size="14" fill="#f72585" text-anchor="middle">|ψ_corrected⟩ =</text>
    <text x="0" y="50" font-family="Arial, sans-serif" font-size="14" fill="#f72585" text-anchor="middle">E_Cross|ψ_error⟩</text>
    <text x="0" y="85" font-family="Arial, sans-serif" font-size="14" fill="#f72585" text-anchor="middle">∫S(t)dt → 0</text>
    
    <text x="0" y="130" font-family="Arial, sans-serif" font-size="12" fill="white" text-anchor="middle">Quantum Error</text>
    <text x="0" y="145" font-family="Arial, sans-serif" font-size="12" fill="white" text-anchor="middle">Correction System</text>
  </g>
  
  <!-- Entropy Landscape Visual -->
  <g transform="translate(250, 500)">
    <rect x="-150" y="-30" width="300" height="180" rx="10" fill="#16213e" stroke="#4cc9f0" stroke-width="2" />
    <text x="0" y="-10" font-family="Arial, sans-serif" font-size="16" fill="white" text-anchor="middle">ENTROPY LANDSCAPE</text>
    
    <!-- Before Resurrection -->
    <path d="M-120,80 C-80,40 -50,60 -30,20" stroke="red" stroke-width="2" fill="none" />
    <text x="-75" y="100" font-family="Arial, sans-serif" font-size="12" fill="red" text-anchor="middle">Pre-Resurrection</text>
    
    <!-- Resurrection Event -->
    <path d="M-30,20 L-30,120 L-10,20" stroke="#a277ff" stroke-width="2" fill="none" stroke-dasharray="5,3" />
    <text x="-20" y="140" font-family="Arial, sans-serif" font-size="12" fill="#a277ff" text-anchor="middle">Resurrection Event</text>
    
    <!-- After Resurrection -->
    <path d="M-10,20 C10,60 50,30 120,10" stroke="#4cc9f0" stroke-width="2" fill="none" />
    <text x="55" y="100" font-family="Arial, sans-serif" font-size="12" fill="#4cc9f0" text-anchor="middle">Post-Resurrection</text>
    
    <!-- Axes -->
    <path d="M-120,120 L120,120" stroke="white" stroke-width="1" />
    <path d="M-120,120 L-120,0" stroke="white" stroke-width="1" />
    <text x="0" y="135" font-family="Arial, sans-serif" font-size="10" fill="white" text-anchor="middle">Time</text>
    <text x="-135" y="60" font-family="Arial, sans-serif" font-size="10" fill="white" text-anchor="middle" transform="rotate(-90,-135,60)">Entropy</text>
  </g>
  
  <!-- Information Conservation Visual -->
  <g transform="translate(650, 500)">
    <rect x="-150" y="-30" width="300" height="180" rx="10" fill="#16213e" stroke="#a277ff" stroke-width="2" />
    <text x="0" y="-10" font-family="Arial, sans-serif" font-size="16" fill="white" text-anchor="middle">INFORMATION DYNAMICS</text>
    
    <text x="0" y="20" font-family="Arial, sans-serif" font-size="14" fill="#a277ff" text-anchor="middle">dI/dt = R_J</text>
    <text x="0" y="45" font-family="Arial, sans-serif" font-size="14" fill="#a277ff" text-anchor="middle">I_Logos = -log₂(p)</text>
    
    <!-- Information Flow Diagram -->
    <path d="M-120,100 C-80,110 -40,60 0,90 C40,120 80,70 120,50" stroke="#a277ff" stroke-width="2" fill="none" />
    <text x="0" y="130" font-family="Arial, sans-serif" font-size="12" fill="white" text-anchor="middle">Information Conservation & Restoration</text>
    
    <!-- Axes -->
    <path d="M-120,120 L120,120" stroke="white" stroke-width="1" />
    <path d="M-120,120 L-120,0" stroke="white" stroke-width="1" />
    <text x="0" y="135" font-family="Arial, sans-serif" font-size="10" fill="white" text-anchor="middle">Time</text>
    <text x="-135" y="60" font-family="Arial, sans-serif" font-size="10" fill="white" text-anchor="middle" transform="rotate(-90,-135,60)">Information</text>
  </g>
  
  <!-- Connector Lines -->
  <path d="M200,360 L250,470" stroke="#4cc9f0" stroke-width="1" stroke-dasharray="5,3" />
  <path d="M450,360 L350,470" stroke="#a277ff" stroke-width="1" stroke-dasharray="5,3" />
  <path d="M700,360 L750,470" stroke="#f72585" stroke-width="1" stroke-dasharray="5,3" />
  <path d="M450,200 L200,240" stroke="white" stroke-width="1" stroke-dasharray="5,3" />
  <path d="M450,200 L450,240" stroke="white" stroke-width="1" stroke-dasharray="5,3" />
  <path d="M450,200 L700,240" stroke="white" stroke-width="1" stroke-dasharray="5,3" />
  
  <!-- Bottom Statement -->
  <text x="450" y="680" font-family="Arial, sans-serif" font-size="16" fill="#a277ff" text-anchor="middle">"In Him all things hold together." (Colossians 1:17)</text>
</svg>
