<svg xmlns="http://www.w3.org/2000/svg" viewBox="0 0 800 800">
  <!-- Deep space background -->
  <defs>
    <radialGradient id="space" cx="50%" cy="50%" r="50%">
      <stop offset="0%" style="stop-color:#000B2E;stop-opacity:1"/>
      <stop offset="100%" style="stop-color:#000510;stop-opacity:1"/>
    </radialGradient>
    
    <!-- Golden spiral gradient -->
    <linearGradient id="goldenPath" x1="0%" y1="0%" x2="100%" y2="0%">
      <stop offset="0%" style="stop-color:#FFD700;stop-opacity:0.8"/>
      <stop offset="100%" style="stop-color:#FFD700;stop-opacity:0"/>
    </linearGradient>
  </defs>

  <!-- Background -->
  <rect width="800" height="800" fill="url(#space)"/>

  <!-- Center point -->
  <circle cx="400" cy="400" r="4" fill="#FFD700"/>

  <!-- Trinity spiral system -->
  <g transform="translate(400,400)">
    <!-- First spiral -->
    <path d="M0,0 Q100,-100 200,0 T400,0" 
          stroke="url(#goldenPath)" 
          fill="none" 
          stroke-width="2"/>
    
    <!-- Second spiral -->
    <path d="M0,0 Q-86.6,-50 -173.2,50 T-346.4,100" 
          stroke="url(#goldenPath)" 
          fill="none" 
          stroke-width="2"
          transform="rotate(120)"/>
    
    <!-- Third spiral -->
    <path d="M0,0 Q-86.6,50 -173.2,-50 T-346.4,-100" 
          stroke="url(#goldenPath)" 
          fill="none" 
          stroke-width="2"
          transform="rotate(240)"/>

    <!-- Quantum probability clouds -->
    <g>
      <circle cx="200" cy="0" r="30" fill="rgba(255,215,0,0.1)"/>
      <circle cx="-100" cy="173.2" r="30" fill="rgba(255,215,0,0.1)"/>
      <circle cx="-100" cy="-173.2" r="30" fill="rgba(255,215,0,0.1)"/>
    </g>

    <!-- Mathematical annotations -->
    <g font-family="Arial" fill="#FFD700" font-size="12">
      <text x="220" y="0">Ψ₁</text>
      <text x="-120" y="193.2">Ψ₂</text>
      <text x="-120" y="-193.2">Ψ₃</text>
    </g>
  </g>

  <!-- Quantum field equations -->
  <g font-family="Arial" fill="#FFD700" font-size="14">
    <text x="50" y="50">∇²Ψ = (1/c²)∂²Ψ/∂t²</text>
    <text x="50" y="80">Ψ = ∑cᵢ|ψᵢ⟩</text>
    <text x="50" y="110">H|Ψ⟩ = E|Ψ⟩</text>
  </g>

  <!-- Divine unity representation -->
  <g transform="translate(400,400)">
    <circle cx="0" cy="0" r="150" 
            stroke="#FFD700" 
            stroke-width="0.5" 
            fill="none" 
            stroke-dasharray="5,5"/>
  </g>

  <!-- Title -->
  <text x="400" y="750" 
        font-family="Arial" 
        fill="#FFD700" 
        font-size="20" 
        text-anchor="middle">
    Quantum Trinity Spiral: The Mathematics of Divine Unity
  </text>
</svg>
