<svg xmlns="http://www.w3.org/2000/svg" viewBox="0 0 800 600">
  <!-- Background with sacred geometry pattern -->
  <defs>
    <radialGradient id="bg-gradient" cx="50%" cy="50%" r="70%" fx="50%" fy="50%">
      <stop offset="0%" stop-color="#1a1a3a" />
      <stop offset="100%" stop-color="#0f0f1f" />
    </radialGradient>
    <filter id="glow" x="-20%" y="-20%" width="140%" height="140%">
      <feGaussianBlur stdDeviation="5" result="blur" />
      <feComposite in="SourceGraphic" in2="blur" operator="over" />
    </filter>
  </defs>

  <!-- Background -->
  <rect width="800" height="600" fill="url(#bg-gradient)" />
  
  <!-- Sacred geometry - Flower of Life pattern (simplified) -->
  <g opacity="0.1" stroke="#fff" stroke-width="0.5" fill="none">
    <circle cx="400" cy="300" r="50" />
    <circle cx="350" cy="300" r="50" />
    <circle cx="450" cy="300" r="50" />
    <circle cx="400" cy="250" r="50" />
    <circle cx="400" cy="350" r="50" />
    <circle cx="350" cy="250" r="50" />
    <circle cx="450" cy="250" r="50" />
    <circle cx="350" cy="350" r="50" />
    <circle cx="450" cy="350" r="50" />
  </g>

  <!-- Centered Infinity Symbol with Cross -->
  <path d="M300,300 C300,230 350,230 400,300 C450,370 500,370 500,300 C500,230 450,230 400,300 C350,370 300,370 300,300 Z" 
        fill="none" stroke="#4682B4" stroke-width="5" filter="url(#glow)" />
  
  <!-- Cross at center of infinity -->
  <path d="M390,280 L410,280 L410,250 L390,250 Z M390,320 L410,320 L410,350 L390,350 Z" 
        fill="#6495ED" filter="url(#glow)" />
  
  <!-- Energy particles flowing around infinity symbol -->
  <g id="particles">
    <circle cx="330" cy="280" r="3" fill="#6495ED" opacity="0.8" />
    <circle cx="350" cy="260" r="2" fill="#ADD8E6" opacity="0.7" />
    <circle cx="370" cy="270" r="2.5" fill="#87CEEB" opacity="0.9" />
    <circle cx="390" cy="290" r="2" fill="#B0E0E6" opacity="0.8" />
    <circle cx="410" cy="310" r="3" fill="#6495ED" opacity="0.7" />
    <circle cx="430" cy="330" r="2" fill="#ADD8E6" opacity="0.9" />
    <circle cx="450" cy="320" r="2.5" fill="#87CEEB" opacity="0.8" />
    <circle cx="470" cy="300" r="2" fill="#B0E0E6" opacity="0.7" />
    <circle cx="470" cy="280" r="3" fill="#6495ED" opacity="0.8" />
    <circle cx="450" cy="260" r="2" fill="#ADD8E6" opacity="0.7" />
    <circle cx="430" cy="270" r="2.5" fill="#87CEEB" opacity="0.9" />
    <circle cx="410" cy="290" r="2" fill="#B0E0E6" opacity="0.8" />
    <circle cx="390" cy="310" r="3" fill="#6495ED" opacity="0.7" />
    <circle cx="370" cy="330" r="2" fill="#ADD8E6" opacity="0.9" />
    <circle cx="350" cy="320" r="2.5" fill="#87CEEB" opacity="0.8" />
    <circle cx="330" cy="300" r="2" fill="#B0E0E6" opacity="0.7" />
  </g>

  <!-- Quantum Wave Functions -->
  <path d="M200,400 C240,350 260,450 300,400 C340,350 360,450 400,400 C440,350 460,450 500,400 C540,350 560,450 600,400" 
        fill="none" stroke="#9370DB" stroke-width="2" opacity="0.7" filter="url(#glow)" />
  
  <!-- Quantum Entanglement Visual -->
  <g transform="translate(200, 180)">
    <circle cx="0" cy="0" r="15" fill="#6A5ACD" opacity="0.8" />
    <circle cx="400" cy="0" r="15" fill="#6A5ACD" opacity="0.8" />
    <path d="M15,0 L385,0" stroke="#6A5ACD" stroke-width="1" stroke-dasharray="5,5" opacity="0.5" />
  </g>

  <!-- Equations -->
  <g font-family="Arial" font-size="14" fill="#fff">
    <!-- Main Conservation Equation -->
    <text x="300" y="480" text-anchor="middle" font-weight="bold">ΔE(spiritual) = 0</text>
    
    <!-- Quantum-Spiritual Notation -->
    <text x="500" y="480" text-anchor="middle" font-weight="bold">Ψ∇Ω{∞⊗π}⟨θ∀τ⟩[Δ]</text>
    
    <!-- Divine Grace Equation -->
    <text x="400" y="510" text-anchor="middle">ΔE = Q - W</text>
    <text x="400" y="530" text-anchor="middle" font-size="12" opacity="0.8">(divine grace - human response)</text>
  </g>

  <!-- Title -->
  <text x="400" y="80" font-family="Arial" font-size="24" fill="#fff" text-anchor="middle" font-weight="bold">
    Conservation of Spiritual Energy &amp; The Quantum Soul
  </text>
  
  <!-- Subtitle -->
  <text x="400" y="110" font-family="Arial" font-size="16" fill="#B0C4DE" text-anchor="middle" font-style="italic">
    Physics of Faith: Law 3
  </text>

  <!-- Key Concepts - Column 1 -->
  <g font-family="Arial" font-size="12" fill="#B0C4DE">
    <text x="150" y="150" text-anchor="middle" font-weight="bold">Information Conservation</text>
    <text x="150" y="170" text-anchor="middle">Soul Eternality</text>
    
    <text x="150" y="210" text-anchor="middle" font-weight="bold">Quantum Entanglement</text>
    <text x="150" y="230" text-anchor="middle">Spiritual Unity</text>
    
    <text x="150" y="270" text-anchor="middle" font-weight="bold">Observer Effect</text>
    <text x="150" y="290" text-anchor="middle">Divine Interaction</text>
  </g>

  <!-- Key Concepts - Column 2 -->
  <g font-family="Arial" font-size="12" fill="#B0C4DE">
    <text x="650" y="150" text-anchor="middle" font-weight="bold">Quantum Tunneling</text>
    <text x="650" y="170" text-anchor="middle">Grace</text>
    
    <text x="650" y="210" text-anchor="middle" font-weight="bold">Superposition</text>
    <text x="650" y="230" text-anchor="middle">Moral Choice</text>
    
    <text x="650" y="270" text-anchor="middle" font-weight="bold">Wave-Particle Duality</text>
    <text x="650" y="290" text-anchor="middle">Divine Nature</text>
  </g>

  <!-- Scriptural Reference -->
  <g font-family="Arial" font-size="12">
    <text x="400" y="560" text-anchor="middle" font-style="italic" fill="#ADD8E6">
      "So will it be with the resurrection of the dead. The body that is sown is perishable, it is raised imperishable."
    </text>
    <text x="400" y="580" text-anchor="middle" font-style="italic" fill="#ADD8E6">
      1 Corinthians 15:42
    </text>
  </g>
</svg>
