<svg xmlns="http://www.w3.org/2000/svg" viewBox="0 0 1000 800">
  <!-- Quantum field background -->
  <defs>
    <linearGradient id="quantumField" x1="0%" y1="0%" x2="100%" y2="100%">
      <stop offset="0%" style="stop-color:#090B1F;stop-opacity:1" />
      <stop offset="50%" style="stop-color:#1A1A3A;stop-opacity:1" />
      <stop offset="100%" style="stop-color:#090B1F;stop-opacity:1" />
    </linearGradient>
    
    <!-- Wave function gradient -->
    <linearGradient id="waveFunction" x1="0%" y1="0%" x2="100%" y2="0%">
      <stop offset="0%" style="stop-color:#4A90E2;stop-opacity:0.8" />
      <stop offset="50%" style="stop-color:#FFD700;stop-opacity:0.8" />
      <stop offset="100%" style="stop-color:#4A90E2;stop-opacity:0.8" />
    </linearGradient>
  </defs>

  <!-- Background -->
  <rect width="1000" height="800" fill="url(#quantumField)" />

  <!-- Quantum probability waves -->
  <g transform="translate(500,400)" stroke="url(#waveFunction)" fill="none" stroke-width="2">
    <!-- Schrödinger wave equation representation -->
    <path d="M-400,0 C-300,-100 -200,100 -100,-100 S100,100 200,-100 S400,100 400,0" 
          opacity="0.6" />
    <path d="M-400,20 C-300,-80 -200,120 -100,-80 S100,120 200,-80 S400,120 400,20" 
          opacity="0.4" />
    <path d="M-400,-20 C-300,-120 -200,80 -100,-120 S100,80 200,-120 S400,80 400,-20"
          opacity="0.4" />
  </g>

  <!-- Trinity-Entanglement representation -->
  <g transform="translate(500,300)">
    <!-- Three entangled quantum states -->
    <circle cx="-100" cy="0" r="40" fill="rgba(74,144,226,0.3)" stroke="#4A90E2" />
    <circle cx="100" cy="0" r="40" fill="rgba(255,215,0,0.3)" stroke="#FFD700" />
    <circle cx="0" cy="-87" r="40" fill="rgba(255,255,255,0.3)" stroke="#FFFFFF" />
    
    <!-- Entanglement lines -->
    <line x1="-100" y1="0" x2="100" y2="0" stroke="white" opacity="0.3" />
    <line x1="-100" y1="0" x2="0" y2="-87" stroke="white" opacity="0.3" />
    <line x1="100" y1="0" x2="0" y2="-87" stroke="white" opacity="0.3" />
  </g>

  <!-- Observer effect visualization -->
  <g transform="translate(500,600)">
    <!-- Consciousness-Reality interface -->
    <path d="M-200,-50 C-100,-100 100,-100 200,-50" 
          stroke="#FFD700" fill="none" stroke-width="2" opacity="0.6" />
    <circle cx="0" cy="-75" r="30" fill="rgba(255,215,0,0.2)" stroke="#FFD700" />
    
    <!-- Quantum collapse representation -->
    <g transform="translate(0,-75)">
      <line x1="-20" y1="-20" x2="20" y2="20" stroke="#FFD700" opacity="0.8" />
      <line x1="20" y1="-20" x2="-20" y2="20" stroke="#FFD700" opacity="0.8" />
    </g>
  </g>

  <!-- Mathematical equations -->
  <g font-family="Arial" fill="white" font-size="14">
    <!-- Heisenberg's Uncertainty -->
    <text x="50" y="50">ΔxΔp ≥ ℏ/2</text>
    
    <!-- Wave function -->
    <text x="50" y="80">Ψ = ∑cᵢ|ψᵢ⟩</text>
    
    <!-- Quantum-Trinity equation -->
    <text x="50" y="110">Ψ∇Ω{∞⊗π}⟨θ∀τ⟩[Δ]</text>
  </g>

  <!-- Labels -->
  <g font-family="Arial" fill="white" text-anchor="middle">
    <text x="500" y="100" font-size="24">Quantum Consciousness Interface</text>
    <text x="500" y="250" font-size="18">Trinity-Entanglement Pattern</text>
    <text x="500" y="700" font-size="18">Observer Effect & Free Will</text>
  </g>
</svg>
