<svg xmlns="http://www.w3.org/2000/svg" viewBox="0 0 800 600">
  <!-- Background -->
  <rect width="800" height="600" fill="#151832" />
  
  <!-- Title -->
  <text x="400" y="50" font-family="Arial, sans-serif" font-size="28" fill="white" text-anchor="middle" font-weight="bold">SIN & ENTROPY (E + S)</text>
  <text x="400" y="80" font-family="Arial, sans-serif" font-size="18" fill="#aaaacc" text-anchor="middle" font-style="italic">The Thermodynamics of Spiritual Disorder</text>
  
  <!-- System boundaries -->
  <rect x="150" y="150" width="200" height="200" fill="none" stroke="#333355" stroke-width="1" rx="5" />
  <rect x="450" y="150" width="200" height="200" fill="none" stroke="#333355" stroke-width="1" rx="5" />
  
  <!-- System labels -->
  <text x="250" y="140" font-family="Arial, sans-serif" font-size="16" fill="white" text-anchor="middle">Ordered System</text>
  <text x="250" y="370" font-family="Arial, sans-serif" font-size="14" fill="#aaaacc" text-anchor="middle">Low Entropy/Sin</text>
  
  <text x="550" y="140" font-family="Arial, sans-serif" font-size="16" fill="white" text-anchor="middle">Disordered System</text>
  <text x="550" y="370" font-family="Arial, sans-serif" font-size="14" fill="#aaaacc" text-anchor="middle">High Entropy/Sin</text>
  
  <!-- Ordered particles (arranged in grid) -->
  <circle cx="170" cy="170" r="5" fill="#5588ff" />
  <circle cx="195" cy="170" r="5" fill="#5588ff" />
  <circle cx="220" cy="170" r="5" fill="#5588ff" />
  <circle cx="245" cy="170" r="5" fill="#5588ff" />
  <circle cx="270" cy="170" r="5" fill="#5588ff" />
  <circle cx="295" cy="170" r="5" fill="#5588ff" />
  <circle cx="320" cy="170" r="5" fill="#5588ff" />
  <circle cx="170" cy="195" r="5" fill="#5588ff" />
  <circle cx="195" cy="195" r="5" fill="#5588ff" />
  <circle cx="220" cy="195" r="5" fill="#5588ff" />
  <circle cx="245" cy="195" r="5" fill="#5588ff" />
  <circle cx="270" cy="195" r="5" fill="#5588ff" />
  <circle cx="295" cy="195" r="5" fill="#5588ff" />
  <circle cx="320" cy="195" r="5" fill="#5588ff" />
  <circle cx="170" cy="220" r="5" fill="#5588ff" />
  <circle cx="195" cy="220" r="5" fill="#5588ff" />
  <circle cx="220" cy="220" r="5" fill="#5588ff" />
  <circle cx="245" cy="220" r="5" fill="#5588ff" />
  <circle cx="270" cy="220" r="5" fill="#5588ff" />
  <circle cx="295" cy="220" r="5" fill="#5588ff" />
  <circle cx="320" cy="220" r="5" fill="#5588ff" />
  <circle cx="170" cy="245" r="5" fill="#5588ff" />
  <circle cx="195" cy="245" r="5" fill="#5588ff" />
  <circle cx="220" cy="245" r="5" fill="#5588ff" />
  <circle cx="245" cy="245" r="5" fill="#5588ff" />
  <circle cx="270" cy="245" r="5" fill="#5588ff" />
  <circle cx="295" cy="245" r="5" fill="#5588ff" />
  <circle cx="320" cy="245" r="5" fill="#5588ff" />
  <circle cx="170" cy="270" r="5" fill="#5588ff" />
  <circle cx="195" cy="270" r="5" fill="#5588ff" />
  <circle cx="220" cy="270" r="5" fill="#5588ff" />
  <circle cx="245" cy="270" r="5" fill="#5588ff" />
  <circle cx="270" cy="270" r="5" fill="#5588ff" />
  <circle cx="295" cy="270" r="5" fill="#5588ff" />
  <circle cx="320" cy="270" r="5" fill="#5588ff" />
  <circle cx="170" cy="295" r="5" fill="#5588ff" />
  <circle cx="195" cy="295" r="5" fill="#5588ff" />
  <circle cx="220" cy="295" r="5" fill="#5588ff" />
  <circle cx="245" cy="295" r="5" fill="#5588ff" />
  <circle cx="270" cy="295" r="5" fill="#5588ff" />
  <circle cx="295" cy="295" r="5" fill="#5588ff" />
  <circle cx="320" cy="295" r="5" fill="#5588ff" />
  
  <!-- Disordered particles (random positions) -->
  <circle cx="463" cy="178" r="5" fill="#ff5588" />
  <circle cx="512" cy="152" r="5" fill="#ff5588" />
  <circle cx="578" cy="201" r="5" fill="#ff5588" />
  <circle cx="535" cy="243" r="5" fill="#ff5588" />
  <circle cx="490" cy="265" r="5" fill="#ff5588" />
  <circle cx="526" cy="188" r="5" fill="#ff5588" />
  <circle cx="583" cy="279" r="5" fill="#ff5588" />
  <circle cx="459" cy="232" r="5" fill="#ff5588" />
  <circle cx="533" cy="301" r="5" fill="#ff5588" />
  <circle cx="608" cy="242" r="5" fill="#ff5588" />
  <circle cx="635" cy="193" r="5" fill="#ff5588" />
  <circle cx="467" cy="313" r="5" fill="#ff5588" />
  <circle cx="492" cy="213" r="5" fill="#ff5588" />
  <circle cx="557" cy="168" r="5" fill="#ff5588" />
  <circle cx="614" cy="330" r="5" fill="#ff5588" />
  <circle cx="472" cy="154" r="5" fill="#ff5588" />
  <circle cx="543" cy="335" r="5" fill="#ff5588" />
  <circle cx="621" cy="159" r="5" fill="#ff5588" />
  <circle cx="509" cy="324" r="5" fill="#ff5588" />
  <circle cx="475" cy="290" r="5" fill="#ff5588" />
  <circle cx="589" cy="245" r="5" fill="#ff5588" />
  <circle cx="639" cy="289" r="5" fill="#ff5588" />
  <circle cx="501" cy="184" r="5" fill="#ff5588" />
  <circle cx="565" cy="216" r="5" fill="#ff5588" />
  <circle cx="627" cy="216" r="5" fill="#ff5588" />
  <circle cx="484" cy="230" r="5" fill="#ff5588" />
  <circle cx="518" cy="278" r="5" fill="#ff5588" />
  <circle cx="571" cy="321" r="5" fill="#ff5588" />
  <circle cx="595" cy="187" r="5" fill="#ff5588" />
  <circle cx="453" cy="289" r="5" fill="#ff5588" />
  <circle cx="602" cy="296" r="5" fill="#ff5588" />
  <circle cx="486" cy="339" r="5" fill="#ff5588" />
  
  <!-- Center arrow showing the entropy increase -->
  <path d="M 360 250 L 440 250" stroke="white" stroke-width="2" marker-end="url(#entropyarrow)" />
  <defs>
    <marker id="entropyarrow" markerWidth="10" markerHeight="7" refX="0" refY="3.5" orient="auto">
      <polygon points="0 0, 10 3.5, 0 7" fill="white" />
    </marker>
  </defs>
  <text x="400" y="235" font-family="Arial, sans-serif" font-size="12" fill="white" text-anchor="middle">Natural Tendency</text>
  
  <!-- The sine wave of sin -->
  <path d="M 150 450 C 200 480, 250 420, 300 450 C 350 480, 400 420, 450 450 C 500 480, 550 420, 600 450 C 650 480, 700 420, 750 450" fill="none" stroke="#ff55aa" stroke-width="3" />
  
  <line x1="150" y1="450" x2="750" y2="450" stroke="#333355" stroke-width="1" />
  <text x="450" y="500" font-family="Arial, sans-serif" font-size="16" fill="white" text-anchor="middle">Time</text>
  <text x="115" y="450" font-family="Arial, sans-serif" font-size="16" fill="white" text-anchor="middle">Sin</text>
  
  <!-- Mathematical formula -->
  <rect x="150" y="520" width="500" height="60" rx="10" fill="#1a1a40" />
  <text x="400" y="555" font-family="Arial, sans-serif" font-size="18" fill="white" text-anchor="middle">(E + S) = ∑ᵢ pᵢ ln(pᵢ) + k · ∑ⱼ sⱼ ln(sⱼ)</text>
  
  <!-- Key for variables -->
  <text x="200" y="400" font-family="Arial, sans-serif" font-size="14" fill="#aaaacc" text-anchor="start">Where:</text>
  <text x="200" y="420" font-family="Arial, sans-serif" font-size="14" fill="#aaaacc" text-anchor="start">E = Physical entropy</text>
  <text x="200" y="440" font-family="Arial, sans-serif" font-size="14" fill="#aaaacc" text-anchor="start">S = Spiritual disorder</text>
  <text x="450" y="420" font-family="Arial, sans-serif" font-size="14" fill="#aaaacc" text-anchor="start">pᵢ = Physical state probabilities</text>
  <text x="450" y="440" font-family="Arial, sans-serif" font-size="14" fill="#aaaacc" text-anchor="start">sⱼ = Spiritual state probabilities</text>
</svg>
