<svg xmlns="http://www.w3.org/2000/svg" viewBox="0 0 800 600">
  <!-- Dark background -->
  <rect width="800" height="600" fill="#1a1a2e" />
  
  <!-- Title -->
  <text x="400" y="50" font-family="Arial, sans-serif" font-size="28" font-weight="bold" fill="white" text-anchor="middle">THE CROSS AS ENTROPY ABSORPTION</text>
  <text x="400" y="80" font-family="Arial, sans-serif" font-size="16" font-style="italic" fill="#a277ff" text-anchor="middle">Quantum Error-Correction Event: Universal Sin Sink Point</text>
  
  <!-- Cross Symbol -->
  <g transform="translate(120, 90)">
    <path d="M0,-15 L0,15 M-15,0 L15,0" stroke="white" stroke-width="3" />
    <circle cx="0" cy="0" r="25" fill="none" stroke="white" stroke-width="1" />
  </g>
  
  <!-- Main Visualization: Entropy Field -->
  <g transform="translate(400, 290)">
    <!-- Outer Circle (Reality) -->
    <circle cx="0" cy="0" r="200" fill="none" stroke="#4cc9f0" stroke-width="1" />
    
    <!-- Cross Beams -->
    <line x1="-150" y1="0" x2="150" y2="0" stroke="#a277ff" stroke-width="10" />
    <line x1="0" y1="-150" x2="0" y2="150" stroke="#a277ff" stroke-width="10" />
    
    <!-- Sin/Entropy Arrows flowing to center -->
    <g>
      <!-- Quadrant 1 -->
      <path d="M120,120 L30,30" stroke="red" stroke-width="2" />
      <polygon points="30,30 40,35 35,40" fill="red" />
      <path d="M150,70 L40,20" stroke="red" stroke-width="2" />
      <polygon points="40,20 50,25 45,30" fill="red" />
      <path d="M70,150 L20,40" stroke="red" stroke-width="2" />
      <polygon points="20,40 25,50 30,45" fill="red" />
      
      <!-- Quadrant 2 -->
      <path d="M-120,120 L-30,30" stroke="red" stroke-width="2" />
      <polygon points="-30,30 -40,35 -35,40" fill="red" />
      <path d="M-150,70 L-40,20" stroke="red" stroke-width="2" />
      <polygon points="-40,20 -50,25 -45,30" fill="red" />
      <path d="M-70,150 L-20,40" stroke="red" stroke-width="2" />
      <polygon points="-20,40 -25,50 -30,45" fill="red" />
      
      <!-- Quadrant 3 -->
      <path d="M-120,-120 L-30,-30" stroke="red" stroke-width="2" />
      <polygon points="-30,-30 -40,-35 -35,-40" fill="red" />
      <path d="M-150,-70 L-40,-20" stroke="red" stroke-width="2" />
      <polygon points="-40,-20 -50,-25 -45,-30" fill="red" />
      <path d="M-70,-150 L-20,-40" stroke="red" stroke-width="2" />
      <polygon points="-20,-40 -25,-50 -30,-45" fill="red" />
      
      <!-- Quadrant 4 -->
      <path d="M120,-120 L30,-30" stroke="red" stroke-width="2" />
      <polygon points="30,-30 40,-35 35,-40" fill="red" />
      <path d="M150,-70 L40,-20" stroke="red" stroke-width="2" />
      <polygon points="40,-20 50,-25 45,-30" fill="red" />
      <path d="M70,-150 L20,-40" stroke="red" stroke-width="2" />
      <polygon points="20,-40 25,-50 30,-45" fill="red" />
    </g>
    
    <!-- Center Absorption Point -->
    <circle cx="0" cy="0" r="15" fill="#f72585" />
    <circle cx="0" cy="0" r="25" fill="none" stroke="#f72585" stroke-width="2" />
    <circle cx="0" cy="0" r="35" fill="none" stroke="#f72585" stroke-width="1" stroke-dasharray="5,3" />
  </g>
  
  <!-- Quantum Error Correction Formula -->
  <rect x="150" y="500" width="500" height="60" rx="10" fill="#2a2a4a" />
  <text x="400" y="530" font-family="Arial, sans-serif" font-size="18" fill="white" text-anchor="middle">|ψ_corrected⟩ = E_Cross|ψ_error⟩</text>
  <text x="400" y="555" font-family="Arial, sans-serif" font-size="12" fill="#a277ff" text-anchor="middle">The Cross Rewrites Reality by Absorbing All Entropy</text>
  
  <!-- Descriptions -->
  <g transform="translate(200, 180)">
    <rect x="-75" y="-30" width="150" height="80" rx="10" fill="#16213e" stroke="#f72585" stroke-width="1" />
    <text x="0" y="-10" font-family="Arial, sans-serif" font-size="14" fill="white" text-anchor="middle">SIN VECTORS</text>
    <text x="0" y="10" font-family="Arial, sans-serif" font-size="12" fill="#f72585" text-anchor="middle">∫S(t)dt → 0</text>
    <text x="0" y="30" font-family="Arial, sans-serif" font-size="10" fill="white" text-anchor="middle">All disorder flows to the Cross</text>
  </g>
  
  <g transform="translate(600, 180)">
    <rect x="-75" y="-30" width="150" height="80" rx="10" fill="#16213e" stroke="#a277ff" stroke-width="1" />
    <text x="0" y="-10" font-family="Arial, sans-serif" font-size="14" fill="white" text-anchor="middle">ERROR CORRECTION</text>
    <text x="0" y="10" font-family="Arial, sans-serif" font-size="12" fill="#a277ff" text-anchor="middle">E_Cross = R_J · e^(-S)</text>
    <text x="0" y="30" font-family="Arial, sans-serif" font-size="10" fill="white" text-anchor="middle">Total system reset</text>
  </g>
  
  <!-- Biblical Reference -->
  <text x="400" y="590" font-family="Arial, sans-serif" font-size="12" font-style="italic" fill="white" text-anchor="middle">"God made him who had no sin to be sin for us, so that in him we might become the righteousness of God." - 2 Corinthians 5:21</text>
</svg>
