<?xml version="1.0" encoding="UTF-8"?>
<svg xmlns="http://www.w3.org/2000/svg" viewBox="0 0 800 600">
  <!-- Background -->
  <rect width="800" height="600" fill="#f0f2f5"/>
  
  <!-- Title -->
  <text x="400" y="40" font-family="Arial, sans-serif" font-size="24" text-anchor="middle" font-weight="bold" fill="#000">
    Physics-Theology Parallels: Empirical Validation
  </text>
  
  <!-- Divider -->
  <line x1="400" y1="60" x2="400" y2="560" stroke="#999" stroke-width="2" stroke-dasharray="5,5"/>
  
  <!-- Physics Side Title -->
  <text x="200" y="80" font-family="Arial, sans-serif" font-size="20" text-anchor="middle" font-weight="bold" fill="#0a4d8c">
    Physical Reality
  </text>
  
  <!-- Theology Side Title -->
  <text x="600" y="80" font-family="Arial, sans-serif" font-size="20" text-anchor="middle" font-weight="bold" fill="#5a0e82">
    Theological Reality
  </text>

  <!-- Strong Nuclear Force Section -->
  <!-- Section Title -->
  <text x="400" y="130" font-family="Arial, sans-serif" font-size="18" text-anchor="middle" font-weight="bold" fill="#000">
    Strong Nuclear Force ↔ Spiritual Unity
  </text>
  
  <!-- Physics Side: Nucleus -->
  <circle cx="200" cy="180" r="50" fill="#cce0fc" stroke="#0a4d8c" stroke-width="3"/>
  <!-- Particles inside nucleus -->
  <circle cx="180" cy="170" r="15" fill="#e63946"/>
  <circle cx="210" cy="190" r="15" fill="#2d7dd2"/>
  <circle cx="220" cy="160" r="15" fill="#2d7dd2"/>
  <circle cx="185" cy="200" r="15" fill="#e63946"/>
  <!-- Force lines connecting particles -->
  <line x1="180" y1="170" x2="210" y2="190" stroke="#0a4d8c" stroke-width="3"/>
  <line x1="180" y1="170" x2="220" y2="160" stroke="#0a4d8c" stroke-width="3"/>
  <line x1="180" y1="170" x2="185" y2="200" stroke="#0a4d8c" stroke-width="3"/>
  <line x1="210" y1="190" x2="220" y2="160" stroke="#0a4d8c" stroke-width="3"/>
  <line x1="210" y1="190" x2="185" y2="200" stroke="#0a4d8c" stroke-width="3"/>
  <line x1="220" y1="160" x2="185" y2="200" stroke="#0a4d8c" stroke-width="3"/>
  <!-- Label -->
  <text x="200" y="250" font-family="Arial, sans-serif" font-size="14" text-anchor="middle" font-weight="bold" fill="#0a4d8c">
    Strong Nuclear Force
  </text>
  <text x="200" y="270" font-family="Arial, sans-serif" font-size="12" text-anchor="middle" fill="#000">
    Binding Particles in Nucleus
  </text>
  
  <!-- Theology Side: Community -->
  <circle cx="600" cy="180" r="50" fill="#e6d5f2" stroke="#5a0e82" stroke-width="3"/>
  <!-- People in community -->
  <circle cx="580" cy="170" r="15" fill="#8c1aab" stroke="#000" stroke-width="1"/>
  <text x="580" y="174" font-family="Arial, sans-serif" font-size="14" text-anchor="middle" fill="white" font-weight="bold">P</text>
  <circle cx="610" cy="190" r="15" fill="#8c1aab" stroke="#000" stroke-width="1"/>
  <text x="610" y="194" font-family="Arial, sans-serif" font-size="14" text-anchor="middle" fill="white" font-weight="bold">P</text>
  <circle cx="620" cy="160" r="15" fill="#8c1aab" stroke="#000" stroke-width="1"/>
  <text x="620" y="164" font-family="Arial, sans-serif" font-size="14" text-anchor="middle" fill="white" font-weight="bold">P</text>
  <circle cx="585" cy="200" r="15" fill="#8c1aab" stroke="#000" stroke-width="1"/>
  <text x="585" y="204" font-family="Arial, sans-serif" font-size="14" text-anchor="middle" fill="white" font-weight="bold">P</text>
  <!-- Relationship lines connecting people -->
  <line x1="580" y1="170" x2="610" y2="190" stroke="#5a0e82" stroke-width="3"/>
  <line x1="580" y1="170" x2="620" y2="160" stroke="#5a0e82" stroke-width="3"/>
  <line x1="580" y1="170" x2="585" y2="200" stroke="#5a0e82" stroke-width="3"/>
  <line x1="610" y1="190" x2="620" y2="160" stroke="#5a0e82" stroke-width="3"/>
  <line x1="610" y1="190" x2="585" y2="200" stroke="#5a0e82" stroke-width="3"/>
  <line x1="620" y1="160" x2="585" y2="200" stroke="#5a0e82" stroke-width="3"/>
  <!-- Label -->
  <text x="600" y="250" font-family="Arial, sans-serif" font-size="14" text-anchor="middle" font-weight="bold" fill="#5a0e82">
    Spiritual Unity
  </text>
  <text x="600" y="270" font-family="Arial, sans-serif" font-size="12" text-anchor="middle" fill="#000">
    Binding People in Community
  </text>
  
  <!-- Connection Line with Formula -->
  <line x1="250" y1="180" x2="550" y2="180" stroke="#333" stroke-width="2" stroke-dasharray="5,5"/>
  <rect x="350" y="160" width="100" height="40" rx="10" ry="10" fill="white" stroke="#333" stroke-width="2"/>
  <text x="400" y="185" font-family="Arial, sans-serif" font-size="12" text-anchor="middle" font-weight="bold" fill="#000">
    S ∝ e^(-d/r₀)
  </text>
  
  <!-- Quantum Entanglement Section -->
  <!-- Section Title -->
  <text x="400" y="330" font-family="Arial, sans-serif" font-size="18" text-anchor="middle" font-weight="bold" fill="#000">
    Quantum Entanglement ↔ Spiritual Connection
  </text>
  
  <!-- Physics Side: Entangled Particles -->
  <circle cx="150" cy="380" r="20" fill="#d5f2d5" stroke="#1a6624" stroke-width="3"/>
  <circle cx="250" cy="380" r="20" fill="#d5f2d5" stroke="#1a6624" stroke-width="3"/>
  <path d="M 150 380 Q 200 340 250 380" stroke="#1a6624" stroke-width="2" stroke-dasharray="5,5" fill="none"/>
  <path d="M 150 380 Q 200 420 250 380" stroke="#1a6624" stroke-width="2" stroke-dasharray="5,5" fill="none"/>
  <!-- Spin arrows -->
  <path d="M 150 370 L 150 360 L 155 365 Z" fill="#1a6624"/>
  <path d="M 250 390 L 250 400 L 245 395 Z" fill="#1a6624"/>
  <!-- Label -->
  <text x="200" y="430" font-family="Arial, sans-serif" font-size="14" text-anchor="middle" font-weight="bold" fill="#1a6624">
    Quantum Entanglement
  </text>
  <text x="200" y="450" font-family="Arial, sans-serif" font-size="12" text-anchor="middle" fill="#000">
    Non-Local Connection
  </text>
  
  <!-- Theology Side: Prayer Connection -->
  <circle cx="550" cy="380" r="20" fill="#fce5c7" stroke="#cc4700" stroke-width="3"/>
  <circle cx="650" cy="380" r="20" fill="#fce5c7" stroke="#cc4700" stroke-width="3"/>
  <!-- Person silhouettes -->
  <path d="M 545 375 A 5 5 0 1 1 555 375 L 550 365 Z" fill="#cc4700"/>
  <path d="M 550 375 L 550 385" stroke="#cc4700" stroke-width="2"/>
  <path d="M 645 375 A 5 5 0 1 1 655 375 L 650 365 Z" fill="#cc4700"/>
  <path d="M 650 375 L 650 385" stroke="#cc4700" stroke-width="2"/>
  <!-- Prayer connection -->
  <path d="M 550 380 Q 600 340 650 380" stroke="#cc4700" stroke-width="2" stroke-dasharray="5,5" fill="none"/>
  <path d="M 550 380 Q 600 420 650 380" stroke="#cc4700" stroke-width="2" stroke-dasharray="5,5" fill="none"/>
  <!-- Label -->
  <text x="600" y="430" font-family="Arial, sans-serif" font-size="14" text-anchor="middle" font-weight="bold" fill="#cc4700">
    Spiritual Connection
  </text>
  <text x="600" y="450" font-family="Arial, sans-serif" font-size="12" text-anchor="middle" fill="#000">
    Prayer & Communion
  </text>
  
  <!-- Connection Line with Formula -->
  <line x1="270" y1="380" x2="530" y2="380" stroke="#333" stroke-width="2" stroke-dasharray="5,5"/>
  <rect x="350" y="360" width="100" height="40" rx="10" ry="10" fill="white" stroke="#333" stroke-width="2"/>
  <text x="400" y="385" font-family="Arial, sans-serif" font-size="12" text-anchor="middle" font-weight="bold" fill="#000">
    |ψ⟩ = |↑↓⟩-|↓↑⟩/√2
  </text>
  
  <!-- Information Theory Section -->
  <!-- Section Title -->
  <text x="400" y="510" font-family="Arial, sans-serif" font-size="18" text-anchor="middle" font-weight="bold" fill="#000">
    Information Theory ↔ Divine Logos
  </text>
  
  <!-- Physics Side: Information Reducing Entropy -->
  <rect x="140" y="530" width="120" height="40" fill="#c7e6f7" stroke="#014f86" stroke-width="3"/>
  <text x="200" y="555" font-family="Arial, sans-serif" font-size="14" text-anchor="middle" font-weight="bold" fill="#014f86">
    Entropy Reduction
  </text>
  <!-- Chaos to Order arrows -->
  <circle cx="150" cy="530" r="3" fill="#014f86"/>
  <circle cx="165" cy="535" r="3" fill="#014f86"/>
  <circle cx="180" cy="530" r="3" fill="#014f86"/>
  <circle cx="195" cy="535" r="3" fill="#014f86"/>
  <circle cx="210" cy="530" r="3" fill="#014f86"/>
  <circle cx="225" cy="535" r="3" fill="#014f86"/>
  <circle cx="240" cy="530" r="3" fill="#014f86"/>
  <circle cx="255" cy="535" r="3" fill="#014f86"/>
  
  <line x1="150" y1="570" x2="170" y2="570" stroke="#014f86" stroke-width="3"/>
  <line x1="180" y1="570" x2="200" y2="570" stroke="#014f86" stroke-width="3"/>
  <line x1="210" y1="570" x2="230" y2="570" stroke="#014f86" stroke-width="3"/>
  <line x1="240" y1="570" x2="260" y2="570" stroke="#014f86" stroke-width="3"/>
  
  <!-- Theology Side: Word Bringing Order -->
  <rect x="540" y="530" width="120" height="40" fill="#f5f2c7" stroke="#665b00" stroke-width="3"/>
  <text x="600" y="555" font-family="Arial, sans-serif" font-size="14" text-anchor="middle" font-weight="bold" fill="#665b00">
    Divine Logos
  </text>
  <!-- Word creating order -->
  <text x="550" y="535" font-family="Arial, sans-serif" font-size="12" font-weight="bold" fill="#665b00">Let there be</text>
  <line x1="600" y1="570" width="40" height="2" stroke="#665b00" stroke-width="3"/>
  <circle cx="620" cy="570" r="10" fill="#f5f2c7" stroke="#665b00" stroke-width="3"/>
  <text x="620" y="573" font-family="Arial, sans-serif" font-size="10" text-anchor="middle" font-weight="bold" fill="#665b00">Light</text>
  
  <!-- Connection Line with Formula -->
  <line x1="260" y1="550" x2="540" y2="550" stroke="#333" stroke-width="2" stroke-dasharray="5,5"/>
  <rect x="350" y="530" width="100" height="40" rx="10" ry="10" fill="white" stroke="#333" stroke-width="2"/>
  <text x="400" y="555" font-family="Arial, sans-serif" font-size="12" text-anchor="middle" font-weight="bold" fill="#000">
    S = -∑p log p
  </text>
  
  <!-- Validation Metrics -->
  <rect x="310" y="85" width="180" height="25" rx="12" ry="12" fill="#fff7cd" stroke="#eab308" stroke-width="3"/>
  <text x="400" y="102" font-family="Arial, sans-serif" font-size="14" text-anchor="middle" font-weight="bold" fill="#000">
    Empirical Validation Methods
  </text>
  
  <rect x="310" y="285" width="180" height="25" rx="12" ry="12" fill="#fff7cd" stroke="#eab308" stroke-width="3"/>
  <text x="400" y="302" font-family="Arial, sans-serif" font-size="14" text-anchor="middle" font-weight="bold" fill="#000">
    Empirical Validation Methods
  </text>
  
  <rect x="310" y="465" width="180" height="25" rx="12" ry="12" fill="#fff7cd" stroke="#eab308" stroke-width="3"/>
  <text x="400" y="482" font-family="Arial, sans-serif" font-size="14" text-anchor="middle" font-weight="bold" fill="#000">
    Empirical Validation Methods
  </text>
</svg>