<?xml version="1.0" encoding="UTF-8"?>
<svg xmlns="http://www.w3.org/2000/svg" viewBox="0 0 800 600">
  <!-- Background -->
  <rect width="800" height="600" fill="#f8f9fa"/>
  
  <!-- Title -->
  <text x="400" y="40" font-family="Arial, sans-serif" font-size="24" text-anchor="middle" font-weight="bold" fill="#333">
    Physics-Theology Parallels: Empirical Validation
  </text>
  
  <!-- Divider -->
  <line x1="400" y1="60" x2="400" y2="560" stroke="#ccc" stroke-width="2" stroke-dasharray="5,5"/>
  
  <!-- Physics Side Title -->
  <text x="200" y="80" font-family="Arial, sans-serif" font-size="20" text-anchor="middle" font-weight="bold" fill="#1565c0">
    Physical Reality
  </text>
  
  <!-- Theology Side Title -->
  <text x="600" y="80" font-family="Arial, sans-serif" font-size="20" text-anchor="middle" font-weight="bold" fill="#6a1b9a">
    Theological Reality
  </text>

  <!-- Strong Nuclear Force Section -->
  <!-- Section Title -->
  <text x="400" y="130" font-family="Arial, sans-serif" font-size="18" text-anchor="middle" font-weight="bold" fill="#333">
    Strong Nuclear Force ↔ Spiritual Unity
  </text>
  
  <!-- Physics Side: Nucleus -->
  <circle cx="200" cy="180" r="50" fill="#e3f2fd" stroke="#1565c0" stroke-width="2"/>
  <!-- Particles inside nucleus -->
  <circle cx="180" cy="170" r="15" fill="#ef5350"/>
  <circle cx="210" cy="190" r="15" fill="#42a5f5"/>
  <circle cx="220" cy="160" r="15" fill="#42a5f5"/>
  <circle cx="185" cy="200" r="15" fill="#ef5350"/>
  <!-- Force lines connecting particles -->
  <line x1="180" y1="170" x2="210" y2="190" stroke="#1565c0" stroke-width="3"/>
  <line x1="180" y1="170" x2="220" y2="160" stroke="#1565c0" stroke-width="3"/>
  <line x1="180" y1="170" x2="185" y2="200" stroke="#1565c0" stroke-width="3"/>
  <line x1="210" y1="190" x2="220" y2="160" stroke="#1565c0" stroke-width="3"/>
  <line x1="210" y1="190" x2="185" y2="200" stroke="#1565c0" stroke-width="3"/>
  <line x1="220" y1="160" x2="185" y2="200" stroke="#1565c0" stroke-width="3"/>
  <!-- Label -->
  <text x="200" y="250" font-family="Arial, sans-serif" font-size="14" text-anchor="middle" fill="#1565c0">
    Strong Nuclear Force
  </text>
  <text x="200" y="270" font-family="Arial, sans-serif" font-size="12" text-anchor="middle" fill="#333">
    Binding Particles in Nucleus
  </text>
  
  <!-- Theology Side: Community -->
  <circle cx="600" cy="180" r="50" fill="#f3e5f5" stroke="#6a1b9a" stroke-width="2"/>
  <!-- People in community -->
  <circle cx="580" cy="170" r="15" fill="#ab47bc" stroke="#333" stroke-width="1"/>
  <text x="580" y="173" font-family="Arial, sans-serif" font-size="14" text-anchor="middle" fill="white">P</text>
  <circle cx="610" cy="190" r="15" fill="#ab47bc" stroke="#333" stroke-width="1"/>
  <text x="610" y="193" font-family="Arial, sans-serif" font-size="14" text-anchor="middle" fill="white">P</text>
  <circle cx="620" cy="160" r="15" fill="#ab47bc" stroke="#333" stroke-width="1"/>
  <text x="620" y="163" font-family="Arial, sans-serif" font-size="14" text-anchor="middle" fill="white">P</text>
  <circle cx="585" cy="200" r="15" fill="#ab47bc" stroke="#333" stroke-width="1"/>
  <text x="585" y="203" font-family="Arial, sans-serif" font-size="14" text-anchor="middle" fill="white">P</text>
  <!-- Relationship lines connecting people -->
  <line x1="580" y1="170" x2="610" y2="190" stroke="#6a1b9a" stroke-width="3"/>
  <line x1="580" y1="170" x2="620" y2="160" stroke="#6a1b9a" stroke-width="3"/>
  <line x1="580" y1="170" x2="585" y2="200" stroke="#6a1b9a" stroke-width="3"/>
  <line x1="610" y1="190" x2="620" y2="160" stroke="#6a1b9a" stroke-width="3"/>
  <line x1="610" y1="190" x2="585" y2="200" stroke="#6a1b9a" stroke-width="3"/>
  <line x1="620" y1="160" x2="585" y2="200" stroke="#6a1b9a" stroke-width="3"/>
  <!-- Label -->
  <text x="600" y="250" font-family="Arial, sans-serif" font-size="14" text-anchor="middle" fill="#6a1b9a">
    Spiritual Unity
  </text>
  <text x="600" y="270" font-family="Arial, sans-serif" font-size="12" text-anchor="middle" fill="#333">
    Binding People in Community
  </text>
  
  <!-- Connection Line with Formula -->
  <line x1="250" y1="180" x2="550" y2="180" stroke="#333" stroke-width="2" stroke-dasharray="5,5"/>
  <rect x="350" y="160" width="100" height="40" rx="10" ry="10" fill="white" stroke="#333" stroke-width="1"/>
  <text x="400" y="185" font-family="Arial, sans-serif" font-size="12" text-anchor="middle" fill="#333">
    S ∝ e^(-d/r₀)
  </text>
  
  <!-- Quantum Entanglement Section -->
  <!-- Section Title -->
  <text x="400" y="330" font-family="Arial, sans-serif" font-size="18" text-anchor="middle" font-weight="bold" fill="#333">
    Quantum Entanglement ↔ Spiritual Connection
  </text>
  
  <!-- Physics Side: Entangled Particles -->
  <circle cx="150" cy="380" r="20" fill="#e8f5e9" stroke="#2e7d32" stroke-width="2"/>
  <circle cx="250" cy="380" r="20" fill="#e8f5e9" stroke="#2e7d32" stroke-width="2"/>
  <path d="M 150 380 Q 200 340 250 380" stroke="#2e7d32" stroke-width="2" stroke-dasharray="5,5" fill="none"/>
  <path d="M 150 380 Q 200 420 250 380" stroke="#2e7d32" stroke-width="2" stroke-dasharray="5,5" fill="none"/>
  <!-- Spin arrows -->
  <path d="M 150 370 L 150 360 L 155 365 Z" fill="#2e7d32"/>
  <path d="M 250 390 L 250 400 L 245 395 Z" fill="#2e7d32"/>
  <!-- Label -->
  <text x="200" y="430" font-family="Arial, sans-serif" font-size="14" text-anchor="middle" fill="#2e7d32">
    Quantum Entanglement
  </text>
  <text x="200" y="450" font-family="Arial, sans-serif" font-size="12" text-anchor="middle" fill="#333">
    Non-Local Connection
  </text>
  
  <!-- Theology Side: Prayer Connection -->
  <circle cx="550" cy="380" r="20" fill="#fff3e0" stroke="#e65100" stroke-width="2"/>
  <circle cx="650" cy="380" r="20" fill="#fff3e0" stroke="#e65100" stroke-width="2"/>
  <!-- Person silhouettes -->
  <path d="M 545 375 A 5 5 0 1 1 555 375 L 550 365 Z" fill="#e65100"/>
  <path d="M 550 375 L 550 385" stroke="#e65100" stroke-width="2"/>
  <path d="M 645 375 A 5 5 0 1 1 655 375 L 650 365 Z" fill="#e65100"/>
  <path d="M 650 375 L 650 385" stroke="#e65100" stroke-width="2"/>
  <!-- Prayer connection -->
  <path d="M 550 380 Q 600 340 650 380" stroke="#e65100" stroke-width="2" stroke-dasharray="5,5" fill="none"/>
  <path d="M 550 380 Q 600 420 650 380" stroke="#e65100" stroke-width="2" stroke-dasharray="5,5" fill="none"/>
  <!-- Label -->
  <text x="600" y="430" font-family="Arial, sans-serif" font-size="14" text-anchor="middle" fill="#e65100">
    Spiritual Connection
  </text>
  <text x="600" y="450" font-family="Arial, sans-serif" font-size="12" text-anchor="middle" fill="#333">
    Prayer & Communion
  </text>
  
  <!-- Connection Line with Formula -->
  <line x1="270" y1="380" x2="530" y2="380" stroke="#333" stroke-width="2" stroke-dasharray="5,5"/>
  <rect x="350" y="360" width="100" height="40" rx="10" ry="10" fill="white" stroke="#333" stroke-width="1"/>
  <text x="400" y="385" font-family="Arial, sans-serif" font-size="12" text-anchor="middle" fill="#333">
    |ψ⟩ = |↑↓⟩-|↓↑⟩/√2
  </text>
  
  <!-- Information Theory Section -->
  <!-- Section Title -->
  <text x="400" y="510" font-family="Arial, sans-serif" font-size="18" text-anchor="middle" font-weight="bold" fill="#333">
    Information Theory ↔ Divine Logos
  </text>
  
  <!-- Physics Side: Information Reducing Entropy -->
  <rect x="140" y="530" width="120" height="40" fill="#e1f5fe" stroke="#0277bd" stroke-width="2"/>
  <text x="200" y="555" font-family="Arial, sans-serif" font-size="14" text-anchor="middle" fill="#0277bd">
    Entropy Reduction
  </text>
  <!-- Chaos to Order arrows -->
  <circle cx="150" cy="530" r="3" fill="#0277bd"/>
  <circle cx="165" cy="535" r="3" fill="#0277bd"/>
  <circle cx="180" cy="530" r="3" fill="#0277bd"/>
  <circle cx="195" cy="535" r="3" fill="#0277bd"/>
  <circle cx="210" cy="530" r="3" fill="#0277bd"/>
  <circle cx="225" cy="535" r="3" fill="#0277bd"/>
  <circle cx="240" cy="530" r="3" fill="#0277bd"/>
  <circle cx="255" cy="535" r="3" fill="#0277bd"/>
  
  <line x1="150" y1="570" x2="170" y2="570" stroke="#0277bd" stroke-width="2"/>
  <line x1="180" y1="570" x2="200" y2="570" stroke="#0277bd" stroke-width="2"/>
  <line x1="210" y1="570" x2="230" y2="570" stroke="#0277bd" stroke-width="2"/>
  <line x1="240" y1="570" x2="260" y2="570" stroke="#0277bd" stroke-width="2"/>
  
  <!-- Theology Side: Word Bringing Order -->
  <rect x="540" y="530" width="120" height="40" fill="#f9fbe7" stroke="#827717" stroke-width="2"/>
  <text x="600" y="555" font-family="Arial, sans-serif" font-size="14" text-anchor="middle" fill="#827717">
    Divine Logos
  </text>
  <!-- Word creating order -->
  <text x="550" y="535" font-family="Arial, sans-serif" font-size="12" fill="#827717">Let there be</text>
  <line x1="600" y1="570" width="40" height="2" stroke="#827717" stroke-width="2"/>
  <circle cx="620" cy="570" r="10" fill="#f9fbe7" stroke="#827717" stroke-width="2"/>
  <text x="620" y="573" font-family="Arial, sans-serif" font-size="10" text-anchor="middle" fill="#827717">Light</text>
  
  <!-- Connection Line with Formula -->
  <line x1="260" y1="550" x2="540" y2="550" stroke="#333" stroke-width="2" stroke-dasharray="5,5"/>
  <rect x="350" y="530" width="100" height="40" rx="10" ry="10" fill="white" stroke="#333" stroke-width="1"/>
  <text x="400" y="555" font-family="Arial, sans-serif" font-size="12" text-anchor="middle" fill="#333">
    S = -∑p log p
  </text>
  
  <!-- Validation Metrics -->
  <rect x="310" y="85" width="180" height="25" rx="12" ry="12" fill="#fffde7" stroke="#fbc02d" stroke-width="2"/>
  <text x="400" y="102" font-family="Arial, sans-serif" font-size="14" text-anchor="middle" fill="#333">
    Empirical Validation Methods
  </text>
  
  <rect x="310" y="285" width="180" height="25" rx="12" ry="12" fill="#fffde7" stroke="#fbc02d" stroke-width="2"/>
  <text x="400" y="302" font-family="Arial, sans-serif" font-size="14" text-anchor="middle" fill="#333">
    Empirical Validation Methods
  </text>
  
  <rect x="310" y="465" width="180" height="25" rx="12" ry="12" fill="#fffde7" stroke="#fbc02d" stroke-width="2"/>
  <text x="400" y="482" font-family="Arial, sans-serif" font-size="14" text-anchor="middle" fill="#333">
    Empirical Validation Methods
  </text>
</svg>