<svg xmlns="http://www.w3.org/2000/svg" viewBox="0 0 800 600">
  <!-- Dark background -->
  <rect width="800" height="600" fill="#151832"/>
  
  <!-- Title -->
  <text x="400" y="50" font-family="Arial" font-size="28" fill="white" text-anchor="middle" font-weight="bold">THE BRIDGE EQUATION</text>
  <text x="400" y="85" font-family="Arial" font-size="20" fill="#a98bff" text-anchor="middle" font-style="italic">Christ as the Mathematical Interface Between Domains</text>
  
  <!-- Bridge visualization -->
  <g transform="translate(400,300)">
    <!-- Left domain: Physics -->
    <circle cx="-200" cy="0" r="120" fill="#1d2045" stroke="#5588dd" stroke-width="2"/>
    <text x="-200" y="-70" font-family="Arial" font-size="20" fill="#5588dd" text-anchor="middle" font-weight="bold">PHYSICS</text>
    <text x="-200" y="-50" font-family="Arial" font-size="14" fill="#5588dd" text-anchor="middle">Quantifiable (Q)</text>
    
    <!-- Right domain: Spiritual -->
    <circle cx="200" cy="0" r="120" fill="#1d2045" stroke="#dd55aa" stroke-width="2"/>
    <text x="200" y="-70" font-family="Arial" font-size="20" fill="#dd55aa" text-anchor="middle" font-weight="bold">SPIRITUAL</text>
    <text x="200" y="-50" font-family="Arial" font-size="14" fill="#dd55aa" text-anchor="middle">Unquantifiable (U)</text>
    
    <!-- Bridge between domains -->
    <g>
      <!-- Bridge structure -->
      <path d="M-120,70 L-80,70 C-40,70 -40,-70 0,-70 C40,-70 40,70 80,70 L120,70" 
            stroke="#a98bff" stroke-width="10" fill="none" stroke-linecap="round"/>
      
      <!-- Cross in center of bridge -->
      <g transform="translate(0,0)">
        <circle cx="0" cy="0" r="25" fill="#1d2045" stroke="white" stroke-width="2"/>
        <rect x="-15" y="-3" width="30" height="6" fill="white"/>
        <rect x="-3" y="-15" width="6" height="30" fill="white"/>
      </g>
      
      <!-- Bridge label -->
      <text x="0" y="30" font-family="Arial" font-size="16" fill="#a98bff" text-anchor="middle" font-weight="bold">CHRIST</text>
      <text x="0" y="50" font-family="Arial" font-size="12" fill="#a98bff" text-anchor="middle">(Interface Function)</text>
    </g>
    
    <!-- Physics domain content -->
    <g transform="translate(-200,0)">
      <!-- Quantum wavefunction -->
      <text x="0" y="-20" font-family="Arial" font-size="16" fill="white" text-anchor="middle">Wavefunctions</text>
      <path d="M-60,10 C-40,30 -20,-10 0,10 C20,30 40,-10 60,10" stroke="#5588dd" stroke-width="2" fill="none"/>
      
      <!-- Physics equations -->
      <text x="-40" y="40" font-family="Arial" font-size="14" fill="white" text-anchor="middle">ΔxΔp ≥ ℏ/2</text>
      <text x="40" y="40" font-family="Arial" font-size="14" fill="white" text-anchor="middle">E=mc²</text>
    </g>
    
    <!-- Spiritual domain content -->
    <g transform="translate(200,0)">
      <!-- Spiritual symbols -->
      <text x="0" y="-20" font-family="Arial" font-size="16" fill="white" text-anchor="middle">Faith</text>
      <path d="M-60,10 L-30,40 L0,-20 L30,40 L60,10" stroke="#dd55aa" stroke-width="2" fill="none"/>
      
      <!-- Spiritual concepts -->
      <text x="-40" y="40" font-family="Arial" font-size="14" fill="white" text-anchor="middle">Grace</text>
      <text x="40" y="40" font-family="Arial" font-size="14" fill="white" text-anchor="middle">Truth</text>
    </g>
  </g>
  
  <!-- Information boxes -->
  <!-- Left box: Quantum Mechanics -->
  <g transform="translate(170,500)">
    <rect x="-120" y="-50" width="240" height="120" rx="5" ry="5" fill="#1d2045" stroke="#5588dd" stroke-width="1"/>
    <text x="0" y="-25" font-family="Arial" font-size="16" fill="white" text-anchor="middle" font-weight="bold">QUANTUM MECHANICS</text>
    <line x1="-90" y1="-15" x2="90" y2="-15" stroke="#5588dd" stroke-width="1"/>
    
    <text x="0" y="5" font-family="Arial" font-size="12" fill="white" text-anchor="middle">• Predicts but doesn't explain</text>
    <text x="0" y="25" font-family="Arial" font-size="12" fill="white" text-anchor="middle">  wave-particle duality</text>
    <text x="0" y="45" font-family="Arial" font-size="12" fill="white" text-anchor="middle">• Limited by materialistic</text>
    <text x="0" y="65" font-family="Arial" font-size="12" fill="white" text-anchor="middle">  framework</text>
  </g>
  
  <!-- Right box: Spiritual Reality -->
  <g transform="translate(630,500)">
    <rect x="-120" y="-50" width="240" height="120" rx="5" ry="5" fill="#1d2045" stroke="#dd55aa" stroke-width="1"/>
    <text x="0" y="-25" font-family="Arial" font-size="16" fill="white" text-anchor="middle" font-weight="bold">SPIRITUAL REALITY</text>
    <line x1="-90" y1="-15" x2="90" y2="-15" stroke="#dd55aa" stroke-width="1"/>
    
    <text x="0" y="5" font-family="Arial" font-size="12" fill="white" text-anchor="middle">• Contains insights beyond</text>
    <text x="0" y="25" font-family="Arial" font-size="12" fill="white" text-anchor="middle">  empirical measurement</text>
    <text x="0" y="45" font-family="Arial" font-size="12" fill="white" text-anchor="middle">• Lacks mathematical precision</text>
    <text x="0" y="65" font-family="Arial" font-size="12" fill="white" text-anchor="middle">  of physical sciences</text>
  </g>
  
  <!-- The Bridge Equation -->
  <g transform="translate(400,180)">
    <rect x="-200" y="-25" width="400" height="50" rx="5" ry="5" fill="#1d2045" fill-opacity="0.7" stroke="#ffffff" stroke-width="1"/>
    <text x="0" y="5" font-family="Arial" font-size="18" fill="white" text-anchor="middle">Θ = Q + U × R_J</text>
  </g>
  
  <!-- Equation explanation -->
  <g transform="translate(400,240)">
    <rect x="-200" y="-20" width="400" height="40" rx="5" ry="5" fill="#1d2045" fill-opacity="0.5" stroke="#a98bff" stroke-width="1"/>
    <text x="0" y="5" font-family="Arial" font-size="14" fill="#a98bff" text-anchor="middle" font-style="italic">Θ: Complete Reality = Physical + Spiritual × Resurrection Factor</text>
  </g>
  
  <!-- Gödel's Theorem -->
  <g transform="translate(400,550)">
    <rect x="-350" y="-30" width="700" height="60" rx="5" ry="5" fill="#1d2045" stroke="#a98bff" stroke-width="1"/>
    <text x="0" y="-5" font-family="Arial" font-size="16" fill="white" text-anchor="middle" font-weight="bold">GÖDEL'S INCOMPLETENESS THEOREM</text>
    <text x="0" y="20" font-family="Arial" font-size="14" fill="#a98bff" text-anchor="middle" font-style="italic">"Any formal system contains truths that cannot be proven within that system."</text>
  </g>
</svg>
