<svg xmlns="http://www.w3.org/2000/svg" viewBox="0 0 1200 800">
  <!-- Enhanced background with quantum field representation -->
  <defs>
    <linearGradient id="quantumField" x1="0%" y1="0%" x2="100%" y2="100%">
      <stop offset="0%" style="stop-color:#090B1F;stop-opacity:1" />
      <stop offset="50%" style="stop-color:#1A1A3A;stop-opacity:1" />
      <stop offset="100%" style="stop-color:#090B1F;stop-opacity:1" />
    </linearGradient>
    
    <!-- Enhanced gravitational well gradient -->
    <radialGradient id="enhancedGravity" cx="50%" cy="50%" r="70%" fx="50%" fy="50%">
      <stop offset="0%" style="stop-color:#4A90E2;stop-opacity:0.3" />
      <stop offset="70%" style="stop-color:#4A90E2;stop-opacity:0.1" />
      <stop offset="100%" style="stop-color:#4A90E2;stop-opacity:0" />
    </radialGradient>
    
    <!-- Divine attraction field -->
    <radialGradient id="divineField" cx="50%" cy="50%" r="70%" fx="50%" fy="50%">
      <stop offset="0%" style="stop-color:#FFD700;stop-opacity:0.3" />
      <stop offset="70%" style="stop-color:#FFD700;stop-opacity:0.1" />
      <stop offset="100%" style="stop-color:#FFD700;stop-opacity:0" />
    </radialGradient>
  </defs>

  <!-- Quantum field background -->
  <rect width="1200" height="800" fill="url(#quantumField)" />
  
  <!-- Quantum wave function representation -->
  <g transform="translate(600,400)" stroke="rgba(255,255,255,0.1)" fill="none">
    <path d="M-500,0 C-300,-50 -100,50 100,-50 S500,50 500,0" />
    <path d="M-500,20 C-300,-30 -100,70 100,-30 S500,70 500,20" />
    <path d="M-500,-20 C-300,-70 -100,30 100,-70 S500,30 500,-20" />
  </g>

  <!-- Left: Physical Reality -->
  <g transform="translate(300,400)">
    <!-- Gravitational well -->
    <ellipse cx="0" cy="0" rx="200" ry="150" fill="url(#enhancedGravity)" />
    
    <!-- Orbital paths with quantum probability clouds -->
    <g stroke="#4A90E2" fill="none" opacity="0.6">
      <ellipse cx="0" cy="0" rx="160" ry="120" />
      <ellipse cx="0" cy="0" rx="120" ry="90" />
      <ellipse cx="0" cy="0" rx="80" ry="60" />
    </g>
    
    <!-- Quantum particle probability cloud -->
    <g id="quantumCloud">
      <circle cx="120" cy="0" r="15" fill="rgba(74,144,226,0.3)" />
      <circle cx="120" cy="0" r="10" fill="rgba(74,144,226,0.5)" />
      <circle cx="120" cy="0" r="5" fill="rgba(74,144,226,0.8)" />
    </g>
    
    <!-- Mathematical equations -->
    <text x="-180" y="-180" fill="white" font-family="Arial" font-size="12">
      <tspan x="-180" dy="0">F = G(m₁m₂)/r²</tspan>
      <tspan x="-180" dy="20">E = mc²</tspan>
      <tspan x="-180" dy="20">ΔxΔp ≥ ℏ/2</tspan>
    </text>
  </g>

  <!-- Right: Spiritual Reality -->
  <g transform="translate(900,400)">
    <!-- Divine attraction field -->
    <ellipse cx="0" cy="0" rx="200" ry="150" fill="url(#divineField)" />
    
    <!-- Spiritual influence paths -->
    <g stroke="#FFD700" fill="none" opacity="0.6">
      <ellipse cx="0" cy="0" rx="160" ry="120" />
      <ellipse cx="0" cy="0" rx="120" ry="90" />
      <ellipse cx="0" cy="0" rx="80" ry="60" />
    </g>
    
    <!-- Soul representation with quantum aspects -->
    <g id="soulCloud">
      <circle cx="120" cy="0" r="15" fill="rgba(255,215,0,0.3)" />
      <circle cx="120" cy="0" r="10" fill="rgba(255,215,0,0.5)" />
      <circle cx="120" cy="0" r="5" fill="rgba(255,215,0,0.8)" />
    </g>
    
    <!-- Spiritual equations -->
    <text x="-180" y="-180" fill="white" font-family="Arial" font-size="12">
      <tspan x="-180" dy="0">S = L(1-sin)/r²</tspan>
      <tspan x="-180" dy="20">ψ = ∑(soul|state⟩)</tspan>
      <tspan x="-180" dy="20">∇G = ∇S · dt</tspan>
    </text>
  </g>

  <!-- Connecting bridge showing quantum-spiritual interface -->
  <g transform="translate(600,400)">
    <path d="M-200,0 C-100,-50 100,-50 200,0" stroke="rgba(255,255,255,0.2)" fill="none" />
    <text x="0" y="-30" fill="white" font-family="Arial" font-size="14" text-anchor="middle">
      Quantum-Spiritual Bridge
    </text>
  </g>

  <!-- Labels and annotations -->
  <g font-family="Arial" fill="white" text-anchor="middle">
    <text x="300" y="150" font-size="18">Physical Domain</text>
    <text x="900" y="150" font-size="18">Spiritual Domain</text>
    <text x="600" y="750" font-size="16">Universal Force Integration</text>
  </g>
</svg>
